HIERARCHY
ROOT Hips
{
	OFFSET 0.000000 0.000000 0.000000
	CHANNELS 6 Xposition Yposition Zposition Zrotation Yrotation Xrotation 
	JOINT LHipJoint
	{
		OFFSET 0.000000 0.000000 0.000000
		CHANNELS 3 Zrotation Yrotation Xrotation
		JOINT LeftUpLeg
		{
			OFFSET 1.363060 -1.794630 0.839290
			CHANNELS 3 Zrotation Yrotation Xrotation
			JOINT LeftLeg
			{
				OFFSET 2.448110 -6.726130 0.000000
				CHANNELS 3 Zrotation Yrotation Xrotation
				JOINT LeftFoot
				{
					OFFSET 2.562200 -7.039590 0.000000
					CHANNELS 3 Zrotation Yrotation Xrotation
					JOINT LeftToeBase
					{
						OFFSET 0.157640 -0.433110 2.322550
						CHANNELS 3 Zrotation Yrotation Xrotation
						End Site
						{
							OFFSET 0.000000 0.000000 0.000000
						}
					}
				}
			}
		}
	}
	JOINT RHipJoint
	{
		OFFSET 0.000000 0.000000 0.000000
		CHANNELS 3 Zrotation Yrotation Xrotation
		JOINT RightUpLeg
		{
			OFFSET -1.305520 -1.794630 0.839290
			CHANNELS 3 Zrotation Yrotation Xrotation
			JOINT RightLeg
			{
				OFFSET -2.542530 -6.985550 0.000000
				CHANNELS 3 Zrotation Yrotation Xrotation
				JOINT RightFoot
				{
					OFFSET -2.568260 -7.056230 0.000000
					CHANNELS 3 Zrotation Yrotation Xrotation
					JOINT RightToeBase
					{
						OFFSET -0.164730 -0.452590 2.363150
						CHANNELS 3 Zrotation Yrotation Xrotation
						End Site
						{
							OFFSET 0.000000 0.000000 0.000000
						}
					}
				}
			}
		}
	}
	JOINT LowerBack
	{
		OFFSET 0.000000 0.000000 0.000000
		CHANNELS 3 Zrotation Yrotation Xrotation
		JOINT Spine
		{
			OFFSET 0.028270 2.035590 -0.193380
			CHANNELS 3 Zrotation Yrotation Xrotation
			JOINT Spine1
			{
				OFFSET 0.056720 2.048850 -0.042750
				CHANNELS 3 Zrotation Yrotation Xrotation
				JOINT Neck
				{
					OFFSET 0.000000 0.000000 0.000000
					CHANNELS 3 Zrotation Yrotation Xrotation
					JOINT Neck1
					{
						OFFSET -0.054170 1.746240 0.172020
						CHANNELS 3 Zrotation Yrotation Xrotation
						JOINT Head
						{
							OFFSET 0.104070 1.761360 -0.123970
							CHANNELS 3 Zrotation Yrotation Xrotation
							End Site
							{
								OFFSET 0.000000 0.000000 0.000000
							}
						}
					}
				}
				JOINT LeftShoulder
				{
					OFFSET 0.000000 0.000000 0.000000
					CHANNELS 3 Zrotation Yrotation Xrotation
					JOINT LeftArm
					{
						OFFSET 3.362410 1.200890 -0.311210
						CHANNELS 3 Zrotation Yrotation Xrotation
						JOINT LeftForeArm
						{
							OFFSET 4.983000 -0.000000 -0.000000
							CHANNELS 3 Zrotation Yrotation Xrotation
							JOINT LeftHand
							{
								OFFSET 3.483560 -0.000000 -0.000000
								CHANNELS 3 Zrotation Yrotation Xrotation
								JOINT LeftFingerBase
								{
									OFFSET 0.000000 0.000000 0.000000
									CHANNELS 3 Zrotation Yrotation Xrotation
									JOINT LeftHandIndex1
									{
										OFFSET 0.715260 -0.000000 -0.000000
										CHANNELS 3 Zrotation Yrotation Xrotation
										End Site
										{
											OFFSET 0.000000 0.000000 0.000000
										}
									}
								}
								JOINT LThumb
								{
									OFFSET 0.000000 0.000000 0.000000
									CHANNELS 3 Zrotation Yrotation Xrotation
									End Site
									{
										OFFSET 0.000000 0.000000 0.000000
									}
								}
							}
						}
					}
				}
				JOINT RightShoulder
				{
					OFFSET 0.000000 0.000000 0.000000
					CHANNELS 3 Zrotation Yrotation Xrotation
					JOINT RightArm
					{
						OFFSET -3.136600 1.374050 -0.404650
						CHANNELS 3 Zrotation Yrotation Xrotation
						JOINT RightForeArm
						{
							OFFSET -5.241900 -0.000000 -0.000000
							CHANNELS 3 Zrotation Yrotation Xrotation
							JOINT RightHand
							{
								OFFSET -3.444170 -0.000000 -0.000000
								CHANNELS 3 Zrotation Yrotation Xrotation
								JOINT RightFingerBase
								{
									OFFSET 0.000000 0.000000 0.000000
									CHANNELS 3 Zrotation Yrotation Xrotation
									JOINT RightHandIndex1
									{
										OFFSET -0.622530 -0.000000 -0.000000
										CHANNELS 3 Zrotation Yrotation Xrotation
										End Site
										{
											OFFSET 0.000000 0.000000 0.000000
										}
									}
								}
								JOINT RThumb
								{
									OFFSET 0.000000 0.000000 0.000000
									CHANNELS 3 Zrotation Yrotation Xrotation
									End Site
									{
										OFFSET 0.000000 0.000000 0.000000
									}
								}
							}
						}
					}
				}
			}
		}
	}
}
MOTION
Frames: 12
Frame Time: 0.008333
-4.614816 15.113256 0.703665 134.526405 78.487859 142.676095 3.553515 -3.004582 -4.649937 -14.862588 12.427246 -52.113083 10.069530 18.275442 60.784112 -3.643253 20.875720 -15.797385 0.176200 -2.703600 -7.454700 -3.380338 1.614403 -1.975994 3.029104 -1.224339 -49.594232 -16.112291 -20.720819 80.557959 -1.863074 -0.316757 -28.053595 -0.016200 0.822700 -2.261200 -5.751503 1.994466 58.535902 -0.438454 2.488039 2.060409 2.804223 2.141700 -8.460550 -9.595388 -6.567659 -26.014055 7.084653 -4.643864 3.633564 2.214400 -2.205500 11.241700 -9.321154 -3.827250 -1.644396 -41.265465 -37.711109 35.492640 36.273615 -43.844746 -15.812614 0.106194 0.085649 -24.167318 21.537320 -10.620778 -4.150600 -7.125000 0.000000 0.000000 -3.993400 18.557100 2.521000 11.515023 6.190245 0.987168 46.073358 39.399529 23.347742 -40.951573 43.438645 -17.928497 1.778708 0.364392 -15.117276 -17.440037 -28.243050 9.256800 7.125000 0.000000 0.000000 12.708800 -58.743300 -4.314100 
-4.625142 15.112108 0.800985 133.872095 78.414887 142.133541 3.555659 -3.014795 -4.665385 -14.721296 12.468005 -51.994997 9.915184 18.183081 60.267751 -3.660740 20.924897 -15.699832 0.246500 -3.195000 -8.822100 -3.396847 1.596378 -1.966499 3.274164 -1.156665 -49.891193 -16.169053 -20.754740 80.719925 -1.902843 -0.119361 -28.242825 -0.007400 0.553900 -1.522100 -5.660390 1.929464 58.142566 -0.419578 2.494557 2.105597 2.829056 2.124724 -8.291040 -9.579718 -6.559152 -26.140017 6.961865 -4.628994 3.987882 2.160700 -2.208300 11.427900 -9.313620 -3.816908 -1.637820 -41.453303 -37.725743 35.642787 36.385357 -43.919304 -15.887283 0.121299 0.093852 -24.356046 21.450679 -10.983889 -4.267800 -7.125000 0.000000 0.000000 -4.076800 18.176300 2.608200 11.520489 6.171980 0.979079 46.085822 39.306592 23.334342 -41.076103 43.513088 -17.998987 1.764408 0.306611 -15.108834 -18.129133 -27.530078 9.355900 7.125000 0.000000 0.000000 11.567200 -58.128300 -3.748200 
-4.637555 15.106893 0.897679 132.804381 78.446319 141.225513 3.561505 -3.026120 -4.685422 -14.516843 12.605353 -51.953489 9.777097 18.078598 59.797751 -3.684908 21.064388 -15.921190 0.253200 -3.237400 -8.940500 -3.418940 1.566031 -1.935333 3.500989 -0.875892 -50.305992 -16.216865 -20.805972 80.858433 -1.919241 -0.054859 -28.330585 -0.002700 0.334500 -0.919200 -5.671007 1.916769 57.734405 -0.409623 2.492387 2.122111 2.878831 2.101656 -8.155236 -9.543294 -6.551002 -26.519074 6.807127 -4.583534 4.613542 2.096500 -2.194600 11.801700 -9.311005 -3.793245 -1.639594 -41.644193 -37.650763 35.687553 36.540909 -44.017313 -16.000089 0.121537 0.100542 -24.471773 21.557128 -11.072855 -4.327000 -7.125000 0.000000 0.000000 -4.006900 18.065900 2.573100 11.516410 6.158203 0.982894 46.234344 39.483869 23.385684 -40.997362 43.449551 -17.944847 1.778794 0.287764 -15.009273 -18.510086 -27.647825 9.580100 7.125000 0.000000 0.000000 11.194900 -58.303700 -3.672900 
-4.652054 15.103346 0.984776 131.687648 78.327722 140.248068 3.557645 -3.050875 -4.706798 -14.469779 12.661721 -51.904019 9.637466 17.990188 59.328620 -3.673372 20.990331 -15.795576 0.199700 -2.877600 -7.938300 -3.427800 1.533954 -1.911829 3.559342 -0.715704 -50.667145 -16.260008 -20.839111 80.987435 -1.926318 -0.008163 -28.356045 -0.000300 0.115700 -0.317800 -5.606369 1.823203 57.319723 -0.421350 2.422200 2.147531 2.821910 2.063793 -8.002360 -9.283524 -6.445418 -26.899404 6.438695 -4.512894 5.375164 1.888600 -2.179800 12.234900 -9.301484 -3.805578 -1.624005 -41.850365 -37.597062 35.788356 36.705407 -44.123003 -16.115689 0.109235 0.107494 -24.404940 21.878728 -10.902735 -4.338700 -7.125000 0.000000 0.000000 -3.769800 18.206500 2.408500 11.530415 6.161109 0.906221 45.863263 39.703759 23.269886 -40.672801 43.262675 -17.761445 1.807545 0.347763 -15.328629 -18.468135 -28.524224 9.866500 7.125000 0.000000 0.000000 11.699300 -59.205500 -4.095100 
-4.668430 15.103555 1.070727 130.823726 78.223087 139.452830 3.553442 -3.070304 -4.719670 -14.407128 12.745985 -51.786669 9.492053 17.895323 58.832060 -3.604490 20.615615 -15.340681 0.174900 -2.694000 -7.427800 -3.448713 1.507436 -1.895350 3.690283 -0.545964 -50.911034 -16.299667 -20.874481 81.103251 -1.936216 0.018807 -28.414170 -0.000200 -0.089600 0.246100 -5.471221 1.666291 57.020116 -0.414944 2.314733 2.159563 2.790170 2.005291 -7.875727 -9.116632 -6.251714 -27.150037 6.008633 -4.306856 6.007849 1.687900 -2.127400 12.573800 -9.285563 -3.816064 -1.607259 -42.113589 -37.456539 35.809433 36.803127 -44.189931 -16.201052 0.109784 0.124013 -24.311455 22.172512 -11.090319 -4.482500 -7.125000 0.000000 0.000000 -3.574900 17.962900 2.302700 11.547368 6.122620 0.871230 45.861477 39.810920 23.377533 -40.610756 43.216913 -17.709119 1.813705 0.356260 -15.336634 -18.387330 -28.662127 9.873700 7.125000 0.000000 0.000000 11.861900 -59.331300 -4.188800 
-4.685120 15.099174 1.156051 129.907461 78.152668 138.591092 3.551317 -3.086459 -4.733746 -14.341697 12.852347 -51.677236 9.355431 17.802037 58.351975 -3.639940 20.698276 -15.047004 0.235900 -3.126200 -8.630300 -3.472615 1.480922 -1.877714 3.844132 -0.319636 -51.165216 -16.339275 -20.916646 81.218875 -1.933958 -0.127970 -28.478740 -0.000300 -0.112300 0.308500 -5.355168 1.556600 56.810402 -0.383673 2.271815 2.170637 2.841408 1.967638 -7.795087 -9.255102 -6.248799 -27.094725 5.818649 -4.249683 6.300269 1.632900 -2.138700 12.705900 -9.271990 -3.804048 -1.589486 -42.504470 -37.434283 35.907874 36.818186 -44.201474 -16.218071 0.110129 0.145646 -24.373739 22.436080 -11.358471 -4.655500 -7.125000 0.000000 0.000000 -3.407000 17.629200 2.219100 11.553568 6.087184 0.867911 45.989254 39.697592 23.376760 -40.915772 43.393278 -17.904733 1.796370 0.315689 -15.207065 -18.649049 -28.142238 9.822200 7.125000 0.000000 0.000000 11.293600 -58.840300 -3.851700 
-4.702956 15.088222 1.231570 128.990706 77.914536 137.703037 3.540146 -3.112550 -4.744262 -14.389666 12.721607 -51.522772 9.229784 17.745834 57.927871 -3.713741 20.941745 -14.716777 0.253100 -3.237100 -8.939700 -3.471565 1.454073 -1.860293 3.789375 -0.226891 -51.403664 -16.382049 -20.937447 81.348100 -1.928843 -0.323457 -28.544771 -0.000100 -0.078500 0.215700 -5.151940 1.299343 56.694846 -0.398229 2.057579 2.155941 2.799732 1.862675 -7.771161 -9.520807 -6.348277 -26.941194 5.876482 -4.280312 6.518037 1.719000 -2.164500 12.800900 -9.288409 -3.760933 -1.583172 -42.824915 -37.354566 35.996381 36.867002 -44.234061 -16.250765 0.095449 0.148488 -24.422401 22.603244 -11.118939 -4.603800 -7.125000 0.000000 0.000000 -3.272500 17.861000 2.114500 11.528147 6.061087 0.906536 46.367084 39.430731 23.433105 -41.441150 43.733472 -18.311987 1.790237 0.321461 -15.018688 -18.511621 -28.525339 9.875100 7.125000 0.000000 0.000000 11.671600 -59.202800 -4.084500 
-4.722358 15.077061 1.307402 128.727842 77.985438 137.407655 3.543028 -3.111909 -4.753679 -14.078141 12.738537 -51.370078 9.140145 17.669683 57.591691 -3.677563 20.699878 -14.209952 0.204200 -2.909500 -8.026800 -3.522313 1.438841 -1.849808 4.140501 0.109780 -51.528166 -16.418554 -20.994410 81.447442 -1.937005 -0.518925 -28.719451 -0.000100 -0.048700 0.133800 -4.787736 1.066570 56.503186 -0.396730 1.967950 2.175530 2.672246 1.811269 -7.671106 -9.568485 -6.287888 -26.882237 5.813342 -4.187071 6.850605 1.726900 -2.134200 12.953100 -9.291769 -3.730160 -1.564995 -43.146128 -37.234729 36.035888 36.946818 -44.288551 -16.305654 0.088871 0.140927 -24.339598 22.509808 -10.799060 -4.454100 -7.125000 0.000000 0.000000 -3.319800 18.217500 2.119100 11.520352 6.027416 0.918103 46.601046 39.407611 23.458178 -41.541702 43.847982 -18.488919 1.820821 0.425027 -14.822937 -17.609210 -30.494788 10.052700 7.125000 0.000000 0.000000 13.901900 -61.033100 -5.490600 
-4.732893 15.071115 1.386573 128.505617 78.502348 136.937329 3.563780 -3.088550 -4.756696 -13.412276 13.259899 -51.028602 9.069265 17.535707 57.272661 -3.610181 20.376328 -14.095031 0.272500 -3.358100 -9.277400 -3.654767 1.431986 -1.852388 4.995796 0.842219 -51.289649 -16.434195 -21.108161 81.473918 -1.959324 -0.717092 -29.015289 0.000000 -0.013000 0.035700 -4.457489 1.020204 56.429790 -0.355219 2.132369 2.244842 2.568442 1.869385 -7.488556 -9.411035 -6.178552 -27.089854 5.544849 -4.079145 7.343604 1.588600 -2.105800 13.231900 -9.267848 -3.723779 -1.544614 -43.481740 -37.228992 36.060784 36.909477 -44.268323 -16.282577 0.085086 0.150303 -24.248666 22.621135 -10.776859 -4.474200 -7.125000 0.000000 0.000000 -3.241200 18.219600 2.068600 11.541066 5.994967 0.898992 46.576434 39.703400 23.492554 -41.355921 43.689399 -18.302007 1.824695 0.352315 -14.584985 -18.414049 -29.688351 10.215800 7.125000 0.000000 0.000000 12.446000 -60.362200 -4.705900 
-4.737900 15.061206 1.468038 125.902941 78.666540 134.464922 3.563027 -3.127601 -4.791030 -13.429537 13.848628 -51.024535 8.976750 17.414010 56.906054 -3.599909 20.306321 -14.053940 0.447700 -4.293100 -11.902800 -3.722527 1.378376 -1.811894 5.100803 1.633590 -51.575793 -16.479664 -21.206819 81.613242 -1.961843 -0.889679 -29.136364 -0.000500 -0.148300 0.407500 -4.724519 1.186641 55.981005 -0.334740 2.242537 2.308558 2.703131 1.892281 -7.244757 -9.284874 -6.156595 -27.371732 5.305104 -4.056202 7.794159 1.442700 -2.111200 13.511500 -9.249267 -3.708348 -1.521731 -43.895112 -37.167954 36.129430 36.966517 -44.314089 -16.334068 0.072485 0.169537 -24.288668 23.044070 -10.801911 -4.588900 -7.125000 0.000000 0.000000 -2.942700 18.128400 1.883500 11.555957 5.955852 0.885893 46.597091 39.931186 23.635383 -41.373252 43.588214 -18.122412 1.761541 0.121737 -14.337325 -20.161828 -26.178918 9.830300 7.125000 0.000000 0.000000 8.675900 -57.019400 -2.568200 
-4.751043 15.060475 1.542201 122.892933 78.271967 131.704469 3.532924 -3.202695 -4.823392 -14.054672 14.106970 -51.151262 8.853511 17.345520 56.480645 -3.595655 20.179929 -13.390710 0.523200 -4.635400 -12.871600 -3.718712 1.313783 -1.768008 4.561632 2.015614 -52.018142 -16.526222 -21.239015 81.769852 -1.960763 -0.929147 -29.139733 -0.003600 -0.388700 1.067900 -5.134241 1.232741 55.545353 -0.340573 2.100136 2.314744 2.903409 1.811104 -7.120398 -9.288195 -6.141899 -27.334170 5.219277 -4.032251 8.022551 1.396500 -2.109300 13.617600 -9.248752 -3.688260 -1.483004 -44.440902 -36.997959 36.265309 37.065468 -44.391314 -16.416693 0.070550 0.187832 -24.313260 23.311136 -10.951316 -4.717800 -7.125000 0.000000 0.000000 -2.765800 17.922200 1.782600 11.555933 5.925600 0.863422 46.541475 39.966944 23.876112 -41.545606 43.537803 -17.939823 1.493577 -0.424332 -14.236153 -24.017047 -17.441017 7.630600 7.125000 0.000000 0.000000 2.351300 -48.023500 -0.175500 
-4.772217 15.064231 1.616677 121.185347 77.838624 130.032846 3.505514 -3.255647 -4.832530 -14.345669 13.794254 -50.872231 8.707968 17.314286 56.043201 -3.585831 20.144575 -13.297867 0.536800 -4.694400 -13.039100 -3.719150 1.280806 -1.750743 4.172384 2.227800 -52.136545 -16.555174 -21.253373 81.866982 -1.979264 -0.875753 -29.233429 -0.008800 -0.607100 1.668200 -5.359535 1.139303 55.460819 -0.315689 1.893372 2.304808 3.120742 1.705380 -7.097650 -9.345957 -6.177586 -27.423479 5.159538 -4.018790 8.310137 1.370600 -2.111800 13.795200 -9.246336 -3.671678 -1.445011 -44.981893 -36.940546 36.378003 37.007861 -44.362816 -16.384079 0.073778 0.211362 -24.197607 23.530958 -11.192033 -4.876400 -7.125000 0.000000 0.000000 -2.631800 17.616900 1.713700 11.555160 5.935361 0.791577 46.304374 40.023082 23.948030 -41.324998 43.606231 -18.144067 1.798025 0.233394 -14.744305 -19.707008 -27.830190 10.226300 7.125000 0.000000 0.000000 9.946300 -58.681300 -3.348000 
